Greenberg 
http://www.imdb.com/title/tt1234654/


Source  :

greenberg.limited.720p.bluray.x264-machd

Info :

ID                               : 1
Format                           : AVC
Format/Info                      : Advanced Video Codec
Format profile                   : Baseline@L2.0
Format settings, CABAC           : No
Format settings, ReFrames        : 3 frames
Codec ID                         : avc1
Codec ID/Info                    : Advanced Video Coding
Duration                         : 1h 47mn
Bit rate mode                    : Variable
Bit rate                         : 400 Kbps
Width                            : 480 pixels
Height                           : 208 pixels
Display aspect ratio             : 2.35:1
Frame rate mode                  : Variable
Frame rate                       : 23.976 fps
Minimum frame rate               : 23.810 fps
Maximum frame rate               : 24.390 fps
Color space                      : YUV
Chroma subsampling               : 4:2:0
Bit depth                        : 8 bits
Scan type                        : Progressive
Bits/(Pixel*Frame)               : 0.167
Stream size                      : 307 MiB (75%)
Writing library                  : x264 core 79

ID                               : 2
Format                           : AAC
Format/Info                      : Advanced Audio Codec
Format version                   : Version 4
Format profile                   : LC
Format settings, SBR             : No
Codec ID                         : 40
Duration                         : 1h 47mn
Bit rate mode                    : Variable
Bit rate                         : 128 Kbps
Maximum bit rate                 : 208 Kbps
Channel(s)                       : 2 channels
Channel positions                : Front: L R
Sampling rate                    : 48.0 KHz
Stream size                      : 98.1 MiB (24%)
Language                         : English


Screens : 
http://img80.imageshack.us/img80/81/vlcsnap00001gf.png 
http://img121.imageshack.us/img121/4782/vlcsnap00002j.png 
http://img18.imageshack.us/img18/1992/vlcsnap00003vy.png 
http://img682.imageshack.us/img682/5936/vlcsnap00004z.png 
http://img535.imageshack.us/img535/952/vlcsnap00005j.png 
http://img189.imageshack.us/img189/7601/vlcsnap00006v.png 
http://img444.imageshack.us/img444/1359/vlcsnap00007k.png 
http://img713.imageshack.us/img713/8104/vlcsnap00008.png




PLEASE LET THE TORRENT SEED AND SHARE IT WITH ALL YOU KNOW!

Let me know what I can do to be your trusted source of Handheld videos. 
http://thepiratebay.org/user/on.off.on/ -OOO